<?xml version="1.0" standalone="no"?><!DOCTYPE svg PUBLIC "-//W3C//DTD SVG 1.1//EN" "http://www.w3.org/Graphics/SVG/1.1/DTD/svg11.dtd" ><svg xmlns="http://www.w3.org/2000/svg"><metadata></metadata><defs><font id="Founder:ZHSRXT2.0-2014-GB	Regular" horiz-adv-x="256"><font-face font-family="ZHSRXT2.0-2014-GB" font-weight="400" font-stretch="normal" units-per-em="256" panose-1="2 0 0 0 0 0 0 0 0 0" ascent="229" descent="-67" x-height="0" bbox="13 -19 241 197" underline-thickness="12" underline-position="-55" unicode-range="U+0025-8fc7" /><missing-glyph horiz-adv-x="256" d="M30 -9 l0 21 l18 0 l0 -21 l-18 0 ZM45 43 l-12 0 l-4 147 l20 0 l-4 -147 Z" /><glyph glyph-name="percent" unicode="%" d="M91 105 l0 60 l-38 0 l0 -60 l38 0 ZM203 13 l0 59 l-38 0 l0 -59 l38 0 ZM111 85 l-78 0 l0 99 l78 0 l0 -99 ZM204 188 l-134 -205 l-24 0 l133 205 l25 0 ZM223 -7 l-78 0 l0 99 l78 0 l0 -99 Z" /><glyph glyph-name="four" unicode="4" d="M170 -5 l-27 0 l0 58 l-116 0 l0 128 l29 0 l0 -103 l87 0 l0 103 l27 0 l0 -186 Z" /><glyph glyph-name="five" unicode="5" d="M174 -5 l-153 0 l0 22 l127 0 l0 61 l-127 0 l0 103 l153 0 l0 -22 l-126 0 l0 -59 l126 0 l0 -105 Z" /><glyph glyph-name="A" unicode="a" d="M123 89 l-9 46 l-48 0 l-8 -46 l65 0 ZM166 -3 l-25 0 l-14 68 l-73 0 l-13 -68 l-25 0 l31 162 l87 0 l32 -162 Z" /><glyph glyph-name="G" unicode="g" d="M161 -2 l-141 0 l0 161 l140 0 l0 -23 l-114 0 l0 -115 l89 0 l0 45 l-57 0 l0 24 l83 0 l0 -92 Z" /><glyph glyph-name="P" unicode="p" d="M130 84 l0 52 l-84 0 l0 -52 l84 0 ZM156 61 l-110 0 l0 -63 l-26 0 l0 161 l136 0 l0 -98 Z" /><glyph glyph-name="uni4E0A" unicode="&#x4e0a;" d="M118 157 l111 0 l0 -26 l-111 0 l0 -122 l114 0 l0 -26 l-206 0 l0 26 l66 0 l0 178 l26 0 l0 -30 Z" /><glyph glyph-name="uni4EBA" unicode="&#x4eba;" d="M144 104 l-116 -121 l-3 33 l93 96 l0 78 l26 0 l0 -86 ZM162 98 l73 -91 l-14 -24 l-75 95 l16 20 Z" /><glyph glyph-name="uni5355" unicode="&#x5355;" d="M50 127 l66 0 l0 29 l-66 0 l0 -29 ZM116 105 l-66 0 l0 -29 l66 0 l0 29 ZM195 105 l-56 0 l0 -29 l68 0 l0 80 l-68 0 l0 -29 l56 0 l0 -22 ZM80 194 l8 -16 l77 0 l9 16 l25 -3 l-7 -13 l38 0 l0 -125 l-91 0 l0 -27 l95 0 l0 -23 l-95 0 l0 -20 l-23 0 l0 20 l-94 0 l0 23 l94 0 l0 27 l-89 0 l0 125 l34 0 l-7 13 l26 3 Z" /><glyph glyph-name="uni5357" unicode="&#x5357;" d="M93 104 l11 -16 l-23 -4 l-14 20 l26 0 ZM141 33 l56 0 l0 -21 l-56 0 l0 -25 l-22 0 l0 25 l-58 0 l0 21 l58 0 l0 24 l-56 0 l0 21 l88 0 l19 29 l21 -5 l-16 -24 l20 0 l0 -21 l-54 0 l0 -24 ZM46 -17 l-24 0 l0 153 l94 0 l0 20 l-95 0 l0 23 l95 0 l0 14 l24 0 l0 -14 l96 0 l0 -23 l-96 0 l0 -20 l94 0 l0 -153 l-42 0 l0 22 l18 0 l0 109 l-164 0 l0 -131 Z" /><glyph glyph-name="uni540D" unicode="&#x540d;" d="M228 70 l0 -87 l-201 0 l0 87 l201 0 ZM105 145 l6 -34 l95 13 l0 33 l-152 0 l-8 -37 l-23 0 l16 70 l23 4 l-3 -13 l171 0 l0 -77 l-204 -26 l0 22 l61 8 l-5 30 l23 7 ZM204 46 l-153 0 l0 -39 l153 0 l0 39 Z" /><glyph glyph-name="uni5747" unicode="&#x5747;" d="M101 95 l-25 -4 l17 99 l24 4 l-2 -10 l122 0 l0 -23 l-4 -178 l-74 0 l0 24 l50 0 l3 152 l-101 0 l-10 -64 ZM16 7 l16 10 l0 102 l-16 0 l0 22 l16 0 l0 47 l23 0 l0 -47 l16 0 l0 -22 l-16 0 l0 -82 l15 12 l0 -28 l-48 -38 l-6 24 ZM166 80 l10 -21 l-90 -75 l-6 25 l86 71 ZM132 140 l33 -38 l-14 -20 l-34 40 l15 18 Z" /><glyph glyph-name="uni5927" unicode="&#x5927;" d="M35 -17 l-14 22 l93 102 l0 22 l-89 0 l0 25 l89 0 l0 39 l26 0 l0 -39 l91 0 l0 -25 l-91 0 l0 -29 l-105 -117 ZM139 78 l21 13 l73 -93 l-20 -16 l-74 96 Z" /><glyph glyph-name="uni5B66" unicode="&#x5b66;" d="M23 45 l0 22 l55 0 l-23 12 l30 5 l33 -17 l39 0 l34 27 l-157 0 l0 22 l189 0 l0 -21 l-35 -28 l45 0 l0 -22 l-71 0 l36 -18 l0 -44 l-166 0 l0 23 l143 0 l0 12 l-53 27 l-99 0 ZM241 185 l-31 -25 l24 0 l0 -33 l-24 0 l0 11 l-163 0 l0 -11 l-24 0 l0 33 l155 0 l41 34 l22 -9 ZM50 192 l23 -19 l-24 -8 l-26 21 l27 6 ZM129 192 l23 -19 l-24 -8 l-26 21 l27 6 Z" /><glyph glyph-name="uni5E73" unicode="&#x5e73;" d="M117 41 l0 118 l-87 0 l0 25 l196 0 l0 -25 l-85 0 l0 -118 l93 0 l0 -24 l-93 0 l0 -34 l-24 0 l0 34 l-96 0 l0 24 l96 0 ZM22 130 l23 11 l40 -68 l-22 -13 l-41 70 ZM234 129 l-19 15 l-43 -69 l21 -14 l41 68 Z" /><glyph glyph-name="uni6210" unicode="&#x6210;" d="M155 -19 l-13 19 l32 43 l-11 115 l-116 0 l0 -40 l90 0 l0 -22 l-7 -104 l-65 0 l0 23 l43 0 l5 79 l-66 0 l0 -48 l-8 -63 l-24 4 l8 59 l0 136 l137 0 l-1 14 l24 1 l1 -15 l17 0 l0 -24 l-15 0 l8 -87 l33 44 l11 -22 l-38 -51 l34 -44 l-17 -15 l-31 40 l-31 -42 ZM209 177 l20 11 l8 -50 l-20 -17 l-8 56 Z" /><glyph glyph-name="uni6211" unicode="&#x6211;" d="M21 57 l46 14 l0 36 l-44 0 l0 23 l45 0 l0 34 l-38 0 l2 21 l93 1 l-9 -22 l-25 0 l0 -34 l61 0 l-2 57 l24 0 l2 -57 l58 0 l0 -23 l-57 0 l1 -51 l42 41 l11 -20 l-46 -46 l50 -30 l-17 -18 l-50 31 l-32 -31 l-16 15 l36 35 l0 1 l-3 73 l-63 0 l0 -29 l26 8 l13 -18 l-39 -13 l0 -72 l-67 0 l0 22 l44 0 l0 43 l-33 -10 l-13 19 ZM200 189 l39 -10 l-14 -19 l-43 11 l18 18 Z" /><glyph glyph-name="uni6392" unicode="&#x6392;" d="M197 20 l39 0 l0 -24 l-39 0 l0 -13 l-24 0 l0 206 l24 0 l0 -18 l39 0 l0 -24 l-39 0 l0 -48 l35 0 l0 -24 l-35 0 l0 -55 ZM78 20 l38 0 l0 55 l-32 0 l0 24 l32 0 l0 48 l-35 0 l0 24 l35 0 l0 18 l24 0 l0 -206 l-24 0 l0 13 l-38 0 l0 24 ZM57 -17 l-40 0 l0 22 l17 0 l0 46 l-13 -8 l-7 22 l20 12 l0 50 l-17 0 l0 22 l17 0 l0 39 l23 0 l0 -39 l17 0 l0 -22 l-17 0 l0 -36 l13 8 l4 -23 l-17 -11 l0 -82 Z" /><glyph glyph-name="uni660C" unicode="&#x660c;" d="M231 79 l0 -96 l-208 0 l0 96 l208 0 ZM28 187 l200 0 l0 -94 l-200 0 l0 94 ZM208 58 l-162 0 l0 -16 l150 0 l0 -21 l-150 0 l0 -16 l162 0 l0 53 ZM193 129 l-141 0 l0 -14 l153 0 l0 50 l-153 0 l0 -15 l141 0 l0 -21 Z" /><glyph glyph-name="uni6E23" unicode="&#x6e23;" d="M231 111 l0 -92 l-160 0 l0 92 l160 0 ZM69 134 l52 24 l-51 0 l0 22 l71 0 l0 11 l23 0 l0 -11 l71 0 l0 -22 l-71 0 l0 -38 l-23 0 l0 26 l-65 -31 l-7 19 ZM195 55 l-102 0 l0 -15 l116 0 l0 50 l-116 0 l0 -15 l102 0 l0 -20 ZM66 5 l170 0 l0 -22 l-170 0 l0 22 ZM41 -17 l-25 5 l25 78 l23 -6 l-23 -77 ZM17 107 l9 22 l36 -26 l-8 -23 l-37 27 ZM22 167 l8 23 l36 -26 l-8 -22 l-36 25 ZM182 139 l36 -24 l16 11 l-34 23 l-18 -10 Z" /><glyph glyph-name="uni73ED" unicode="&#x73ed;" d="M168 160 l0 24 l70 0 l0 -24 l-26 0 l0 -61 l24 0 l0 -22 l-24 0 l0 -71 l26 0 l0 -23 l-88 0 l0 23 l39 0 l0 71 l-21 0 l0 22 l21 0 l0 61 l-21 0 ZM14 6 l27 6 l0 67 l-21 0 l0 23 l21 0 l0 58 l-22 0 l0 24 l68 0 l0 -24 l-23 0 l0 -58 l21 0 l0 -23 l-21 0 l0 -61 l25 6 l0 -22 l-72 -19 l-3 23 ZM152 10 l-62 -27 l4 26 l37 15 l0 164 l21 0 l0 -178 ZM97 36 l20 0 l0 136 l-20 0 l0 -136 Z" /><glyph glyph-name="uni7684" unicode="&#x7684;" d="M112 -17 l-91 0 l0 195 l30 0 l5 14 l24 -1 l-4 -13 l36 0 l0 -195 ZM146 110 l-23 5 l16 76 l24 4 l-3 -14 l76 0 l0 -24 l-4 -174 l-89 0 l0 26 l65 0 l3 147 l-56 0 l-9 -46 ZM77 73 l-33 0 l0 -67 l44 0 l0 149 l-44 0 l0 -59 l33 0 l0 -23 ZM164 56 l-29 38 l23 9 l28 -36 l-22 -11 Z" /><glyph glyph-name="uni7EE9" unicode="&#x7ee9;" d="M83 90 l0 21 l66 0 l0 14 l-58 0 l0 20 l58 0 l0 14 l-62 0 l0 22 l62 0 l0 10 l22 0 l0 -10 l62 0 l0 -22 l-62 0 l0 -14 l60 0 l0 -20 l-60 0 l0 -14 l66 0 l0 -21 l-154 0 ZM19 50 l0 22 l25 37 l-25 0 l0 22 l23 59 l22 0 l-23 -59 l18 0 l13 18 l13 -15 l-40 -58 l31 7 l0 -21 l-57 -12 ZM232 24 l-23 0 l0 33 l-96 0 l0 -33 l-23 0 l0 53 l142 0 l0 -53 ZM149 22 l0 21 l23 0 l0 -37 l-97 -23 l5 24 l69 15 ZM16 7 l59 40 l0 -24 l-54 -39 l-5 23 ZM199 13 l38 -15 l-16 -15 l-44 17 l22 13 Z" /><glyph glyph-name="uni8D85" unicode="&#x8d85;" d="M36 -17 l-19 6 l13 97 l16 -14 l-3 -28 l19 -38 l1 0 l0 84 l22 0 l0 -21 l34 0 l0 -23 l-34 0 l0 -40 l151 0 l0 -23 l-184 0 l-13 27 l-3 -27 ZM134 100 l97 0 l0 -75 l-97 0 l0 75 ZM20 98 l0 24 l42 0 l0 27 l-37 0 l0 24 l37 0 l0 16 l22 0 l0 -16 l38 0 l0 -24 l-38 0 l0 -27 l40 0 l0 -24 l-104 0 ZM156 112 l-22 4 l21 46 l-21 0 l0 22 l101 0 l0 -21 l-4 -49 l-45 0 l0 21 l25 0 l2 27 l-35 0 l-22 -50 ZM156 79 l0 -32 l53 0 l0 32 l-53 0 Z" /><glyph glyph-name="uni8FC7" unicode="&#x8fc7;" d="M32 188 l35 -33 l-9 -22 l-37 35 l11 20 ZM46 -2 l-30 -14 l-3 26 l16 8 l0 84 l-12 0 l0 21 l37 0 l0 -102 l29 -14 l152 0 l0 -24 l-158 0 l-31 15 ZM160 48 l37 0 l0 103 l-122 0 l0 24 l122 0 l0 16 l25 0 l0 -16 l18 0 l0 -24 l-18 0 l0 -126 l-62 0 l0 23 ZM109 123 l46 -39 l-18 -16 l-48 41 l20 14 Z" /></font>
</defs>
</svg>
